<mxfile host="app.diagrams.net" modified="2023-08-05T14:04:55.355Z" agent="Mozilla/5.0 (Macintosh; Intel Mac OS X 10_15_7) AppleWebKit/605.1.15 (KHTML, like Gecko) Version/15.3 Safari/605.1.15" version="21.6.6" etag="3LrTsN3aYROuCwNn2c0E" type="github">
  <diagram name="Page-1" id="ZlgWpkXBs0fyBRokMFkK">
    <mxGraphModel>
      <root>
        <mxCell id="0" />
        <mxCell id="1" parent="0" />
      </root>
    </mxGraphModel>
  </diagram>
</mxfile>
